<?xml version="1.0" encoding="utf-8"?>
<!-- Generator: Adobe Illustrator 26.0.1, SVG Export Plug-In . SVG Version: 6.00 Build 0)  -->
<svg version="1.1" xmlns="http://www.w3.org/2000/svg" xmlns:xlink="http://www.w3.org/1999/xlink" x="0px" y="0px"
	 viewBox="0 0 134 137" style="enable-background:new 0 0 134 137;" xml:space="preserve">
<style type="text/css">
	.st0{display:none;}
	.st1{display:inline;}
	.st2{fill:#FFFFFF;}
	.st3{fill:#357DED;}
	.st4{fill:#FF0000;}
</style>
<g id="Capa_1" class="st0">
	<g class="st1">
		<g>
			<g>
				<path class="st2" d="M145.73,109.88l-3.27-15.31h-28.67l-8.63,15.31h-38.3L127.69,8.4H157l24.78,101.48H145.73z M135.96,63.74
					l-1.28-5.96l-3.38,5.96H135.96z"/>
				<path class="st3" d="M152.29,14.4l21.85,89.48h-23.55l-3.27-15.31h-37.02l-8.63,15.31h-24.2l53.64-89.48H152.29 M121.02,69.74
					h22.37l-6.15-28.65L121.02,69.74 M161.71,2.4h-9.42h-21.19h-6.8l-3.49,5.83L67.16,97.72l-10.89,18.17h21.18h24.2h7.01l3.44-6.1
					l5.19-9.2h20.31l1.24,5.81l2.03,9.49h9.71h23.55h15.28l-3.62-14.85l-21.85-89.48L161.71,2.4L161.71,2.4z"/>
			</g>
		</g>
	</g>
	<g class="st1">
		<path class="st3" d="M191.28,13.82h22.23l15.88,44.59c2.54,6.99,4.06,12.83,4.06,12.83h0.25l11.18-57.42h21.47l-17.53,90.83
			h-22.23l-15.5-43.32c-2.29-6.22-4.45-14.48-4.45-14.48h-0.25l-11.18,57.8h-21.47L191.28,13.82z"/>
		<path class="st3" d="M275.49,13.82h22.1l-17.53,90.83h-22.23L275.49,13.82z"/>
		<path class="st3" d="M306.74,13.82h29.47l2.92,36.97c0.76,10.29,1.52,23.75,1.52,23.75h0.13c0,0,4.57-11.81,9.4-22.23l17.78-38.49
			h30.49l-17.53,90.83H360.6l8.64-44.84c1.4-7.11,4.19-19.18,4.19-19.18h-0.25c0,0-4.95,11.43-8.13,18.29l-20.96,45.73h-18.29
			l-3.56-45.86c-0.38-5.08-0.89-18.17-0.89-18.17h-0.25c0,0-2.29,13.08-3.43,19.05l-8.64,44.97h-19.82L306.74,13.82z"/>
		<path class="st3" d="M431.98,13.82h22.61l15.88,90.83h-22.99l-2.29-16.51h-30.74l-8,16.51h-22.48L431.98,13.82z M422.33,72.13
			h20.83l-2.92-21.85c-0.64-4.83-1.27-13.08-1.27-13.08h-0.25c0,0-3.56,8.38-5.72,12.96L422.33,72.13z"/>
		<path class="st3" d="M470.34,67.17c0-28.45,18.55-55.13,48.91-55.13c10.42,0,18.67,2.41,24.77,7.24
			c7.24,5.59,11.05,14.35,11.69,25.79h-22.1c-0.51-9.15-5.33-14.48-15.24-14.48c-17.78,0-25.41,19.18-25.41,36.08
			c0,11.43,4.57,21.72,17.91,21.72c9.53,0,16.51-5.46,19.18-15.24h22.23c-2.41,10.92-7.62,19.56-15.12,25.28
			c-7.62,5.72-16.39,8.26-27.06,8.26C485.58,106.68,470.34,91.69,470.34,67.17z"/>
		<path class="st3" d="M568.02,13.82h65.93l-3.56,18.29h-43.7l-3.18,16.64h37.6l-3.3,17.28h-37.73l-3.81,19.69h45.22l-3.68,18.93
			h-67.33L568.02,13.82z"/>
	</g>
</g>
<g id="Capa_2">
	<g>
		<circle class="st4" cx="67.5" cy="69" r="57"/>
	</g>
	<g>
		<path class="st2" d="M76.79,98.05h-0.29c-4.92,6.81-12.74,9.99-22.3,9.99c-14.19,0-24.61-7.67-24.61-22.15
			c0-16.36,12.6-21.14,26.79-22.73c15.64-1.74,19.84-3.62,19.84-8.25c0-4.05-1.88-7.09-7.82-7.09s-8.98,3.47-9.7,8.83H32.78
			c0.58-14.62,11.87-26.64,35.04-26.64c11.29,0,18.53,1.45,24.18,4.92c7.67,4.78,11.44,12.31,11.44,22.15v36.92
			c0,6.23,0.43,9.56,2.75,11v1.16H79.26C78.24,104.42,77.37,102.1,76.79,98.05z M76.94,79.37v-6.52c-2.61,1.3-5.94,2.46-10.57,3.47
			c-7.96,1.74-10.42,4.05-10.42,8.4c0,4.92,4.05,7.09,8.54,7.09C70.86,91.82,76.94,88.2,76.94,79.37z"/>
	</g>
</g>
</svg>
